PathFileType	4	(X/Y/Z)	Star.trc	
DataRate	CameraRate	NumFrames	NumMarkers	Units	OrigDataRate	OrigDataStartFrame	OrigNumFrames	
100.00	100.00	43	6	mm	100.00	356	1362	
Frame#	Time	LThighSuperior			LThighInferior			LThighLateral			LAsis			RAsis			SACR			
		X1	Y1	Z1	X2	Y2	Z2	X3	Y3	Z3	X4	Y4	Z4	X5	Y5	Z5	X6	Y6	Z6	

171	1.700	39.02602	-22.61598	744.28613	55.91112	-7.72108	597.55304	82.21697	72.03439	688.40704	123.62223	35.41870	943.62280	374.15634	12.35313	950.71722	235.73758	-153.78452	968.89648 
172	1.710	37.51147	-21.26858	744.38745	54.41917	-6.99581	597.52240	81.34731	72.95265	687.89056	121.85430	37.11121	943.51178	372.22699	13.22902	950.46393	233.41232	-152.61708	969.40015 
173	1.720	35.88509	-19.75538	744.24951	52.78047	-6.20168	597.40771	80.39842	73.86740	687.37494	120.25044	38.49696	943.27130	370.38287	13.93026	950.24719	230.97409	-151.49876	969.82068 
174	1.730	34.34977	-18.23031	744.02838	51.28438	-5.45035	597.26703	79.58785	74.71520	686.78400	118.88573	39.77444	942.92322	368.65897	14.42431	950.06989	228.62288	-150.37529	970.23096 
175	1.740	32.83630	-16.64155	743.78864	50.56763	-5.29955	596.96442	78.76244	75.62711	686.13019	117.40079	41.17621	942.61346	366.82904	14.69234	949.92206	226.27647	-149.22562	970.47504 
176	1.750	31.17118	-15.09543	743.58710	49.67621	-5.16140	596.72583	77.67922	76.56507	685.51611	115.78071	42.67442	942.47601	364.91589	14.84918	949.85175	223.75186	-148.11026	970.56787 
177	1.760	29.48392	-13.68791	743.46948	48.28466	-4.73639	596.66681	76.74706	77.35414	684.96350	114.31000	44.11217	942.42712	363.25314	15.25591	950.01379	221.24576	-147.14494	970.49243 
178	1.770	27.92702	-12.40388	743.33594	46.99363	-4.51068	596.54047	76.18882	77.87808	684.43945	112.92191	45.48226	942.40356	361.78845	15.56172	950.20227	218.86813	-146.19273	970.12555 
179	1.780	26.05916	-10.91207	743.21942	45.37619	-3.97944	596.42468	74.66689	78.59647	683.51746	111.63916	46.89665	942.35199	360.39474	15.47688	950.23547	216.55804	-145.28905	969.69128 
180	1.790	24.04095	-9.47025	743.22992	43.73456	-3.28253	596.50201	74.00632	79.25268	683.15656	110.49116	48.49819	942.28735	359.03329	15.51117	950.31293	214.26125	-144.61823	969.35870 
181	1.800	22.61501	-8.49174	743.23401	42.74873	-3.30147	596.45099	73.26981	79.69077	682.91199	109.31905	49.95713	942.21143	357.66708	15.65777	950.39398	211.94507	-143.91879	969.04297 
182	1.810	21.13698	-7.37974	743.18744	41.67538	-3.38156	596.20422	71.91578	80.11022	682.34888	108.07990	51.25249	942.19702	356.29028	15.71115	950.37842	209.64275	-143.25916	968.82599 
183	1.820	19.43148	-6.15076	743.14203	40.05464	-2.81191	596.11810	70.75076	80.79039	681.82477	106.74955	52.86230	942.31140	354.93106	15.76063	950.33643	207.53918	-142.56520	968.67908 
184	1.830	18.26521	-5.18935	742.96112	38.61988	-2.30818	596.14032	69.80546	81.30077	681.30334	105.86018	52.93588	941.50812	353.59247	15.83221	950.23102	205.55717	-141.25383	968.25885 
185	1.840	17.12390	-4.19684	742.68103	38.08422	-2.68865	596.04193	68.79298	81.70166	680.62708	104.45959	55.50833	941.70801	352.20554	15.91835	950.07086	203.77692	-141.01933	968.59119 
186	1.850	15.44554	-3.56478	742.53229	36.23581	-2.64684	595.75995	67.76708	82.27183	680.02142	103.92464	54.86092	941.11646	350.85141	16.07596	949.97333	201.88800	-139.88109	968.41254 
187	1.860	13.66102	-3.42689	742.49493	35.33889	-3.13105	595.53082	66.57749	82.59384	679.47992	102.82317	55.54466	940.69989	349.57236	16.30564	949.87781	199.96431	-139.02431	968.31049 
188	1.870	12.48511	-2.92606	742.23376	34.02939	-3.40896	595.39807	65.31677	82.67617	678.91974	101.59638	56.74261	940.35486	348.22455	16.43585	949.73102	198.06667	-138.28569	968.31464 
189	1.880	11.72100	-1.92251	741.76306	32.29649	-3.42293	595.36322	64.07568	82.79424	678.37842	100.44887	57.84763	940.10797	346.80679	16.46904	949.63379	196.18884	-137.50255	968.25555 
190	1.890	10.02571	-0.50248	741.62842	31.19500	-3.57957	595.39221	62.88486	82.99716	677.93195	99.21035	58.89880	939.89331	345.45557	16.50798	949.54749	194.40735	-136.62025	968.05536 
191	1.900	9.44886	0.95469	741.47534	30.10909	-3.81496	595.36249	61.75245	83.28945	677.49054	97.91864	60.42281	940.02087	344.16846	16.54988	949.40839	192.46187	-136.15402	968.26367 
192	1.910	7.52113	0.45262	741.87439	28.79688	-3.93061	595.18256	60.70307	83.58675	677.00122	96.55686	62.53458	940.45898	342.81848	16.63714	949.33142	190.48505	-135.66443	968.10822 
193	1.920	5.69158	1.14802	741.69409	27.60818	-3.82563	594.95215	59.83236	83.90860	676.59851	95.23392	64.09217	940.58398	341.39172	16.76558	949.32489	188.56299	-135.07350	967.82507 
194	1.930	4.43298	1.79885	741.40668	26.44571	-3.52652	594.71625	58.95672	84.32682	676.20624	93.99142	64.92857	940.43250	340.02145	16.85051	949.25214	186.68266	-134.52898	967.43774 
195	1.940	3.17878	2.54714	741.07556	25.16464	-3.20895	594.43109	57.98693	84.75438	675.72858	92.72613	65.56356	940.22919	338.67773	16.88825	949.12177	184.76036	-134.01575	967.08173 
196	1.950	1.81277	3.29461	740.78790	23.83540	-3.03662	594.18811	57.02339	85.11268	675.28998	91.38683	66.25365	939.99274	337.18686	17.00181	948.98883	182.84779	-133.66402	966.88550 
197	1.960	0.49166	3.90027	740.49884	22.63541	-2.67378	594.01770	55.99800	85.43886	674.90930	89.99518	67.07317	939.72668	335.68082	17.01772	948.78827	181.02263	-133.36658	966.76776 
198	1.970	-0.95643	4.65229	740.11182	21.46631	-2.02206	593.77087	54.84161	85.92547	674.62805	88.66166	67.77467	939.47467	334.30942	16.78106	948.57025	179.25554	-132.94644	966.59973 
199	1.980	-2.42895	5.45684	739.76318	20.42766	-1.46771	593.52539	53.64954	86.64726	674.50677	87.31839	68.31123	939.32111	332.89291	16.57247	948.43768	177.41510	-132.72466	966.14532 
200	1.990	-4.00832	5.82268	739.79913	19.51176	-0.89015	593.47906	52.45809	87.33642	674.37598	85.90154	68.78027	939.23236	331.43335	16.40425	948.30707	175.81972	-132.74832	966.18268 
201	2.000	-5.57981	6.14587	739.90143	18.47812	-0.11023	593.39722	51.19910	87.95866	674.21149	84.54083	69.27815	939.15326	329.97147	16.28078	948.19794	174.13414	-131.52792	965.69421 
202	2.010	-6.60223	6.80109	739.61493	17.42332	0.71184	593.07764	49.88115	88.61171	674.08545	83.26270	69.79746	939.08087	328.45639	16.12594	948.15283	172.38387	-131.75838	965.72552 
203	2.020	-7.47389	7.45552	739.27435	16.45431	1.46658	592.84021	48.59634	89.23206	674.02283	82.04864	70.36774	939.07819	327.01752	15.78677	948.08295	170.76881	-132.02522	965.89734 
204	2.030	-8.64117	8.06496	739.17004	15.51826	2.06702	592.78662	47.37145	89.83936	673.98102	80.93025	71.03967	939.13599	325.71640	15.48966	948.06946	168.88251	-131.41237	965.52124 
205	2.040	-9.85461	8.75539	739.06769	14.54388	2.63171	592.65051	46.15825	90.53948	673.85370	79.82394	71.68846	939.14935	324.48419	15.28273	948.18524	167.14194	-131.21779	965.45435 
206	2.050	-10.97165	9.58203	738.64459	13.57632	3.37451	592.39709	45.08323	91.30569	673.76263	78.68119	72.21215	939.08539	323.25934	15.03153	948.33954	165.46765	-131.09569	965.46411 
207	2.060	-12.06400	10.37075	738.26343	12.75188	4.40675	592.19006	44.23365	92.13435	673.79767	77.60307	72.65656	939.00464	322.01721	14.45468	948.49188	163.69455	-130.75372	965.33142 
208	2.070	-12.82608	11.02133	738.17737	12.05993	5.57477	592.07080	43.54229	93.02787	673.86017	76.59235	73.14036	938.91583	320.79553	13.60344	948.66052	161.91803	-130.60793	965.32294 
209	2.080	-13.50207	11.87908	738.04846	11.40786	6.63046	591.97363	43.02967	93.88595	673.87372	75.55195	73.69366	938.82159	319.60986	13.04966	948.92841	160.16116	-130.46754	965.31970 
210	2.090	-14.46446	12.95738	737.81433	10.77277	7.70534	591.84619	42.69238	94.82983	673.88647	74.52834	74.36098	938.81201	318.40378	12.87109	949.30438	158.26216	-129.75288	964.91284 
211	2.100	-15.26528	13.99438	737.52405	9.94236	9.04623	591.59503	42.44698	95.87331	673.93280	73.61391	75.03703	938.85400	317.16443	12.75826	949.68292	156.64978	-129.83298	965.10229 
212	2.110	-15.93719	15.17237	737.27698	9.19403	10.50212	591.21533	42.22600	96.89572	673.96606	72.74989	75.64482	938.82013	315.93997	12.51243	950.07159	154.96213	-129.56442	965.16467 
213	2.120	-16.54281	16.46429	737.04712	8.83360	11.97140	590.88440	42.09049	97.88805	673.99255	71.85128	76.46359	938.71271	314.74667	12.12213	950.55890	153.09705	-128.87721	964.87958 
